<svg width="197" height="39" viewBox="0 0 197 39" fill="none" xmlns="http://www.w3.org/2000/svg">
<path d="M15.7207 6.70798V11.537C16.0858 10.143 16.6915 8.99801 17.5378 8.10191C18.4007 7.18922 19.5374 6.73287 20.948 6.73287C21.9436 6.73287 22.6987 7.07305 23.2131 7.75343C23.7275 8.4338 23.9847 9.28012 23.9847 10.2924V22.2404C23.9847 22.705 24.076 23.0784 24.2586 23.3605C24.4577 23.6426 24.7315 23.7837 25.08 23.7837C25.3621 23.7837 25.6442 23.7007 25.9263 23.5348C26.2084 23.3522 26.4241 23.1365 26.5735 22.8876L26.922 23.2112C26.7062 23.709 26.3578 24.1405 25.8765 24.5055C25.3953 24.854 24.8394 25.0283 24.2088 25.0283C23.4454 25.0283 22.8314 24.7711 22.3668 24.2566C21.9021 23.7256 21.6698 22.9623 21.6698 21.9666V11.288C21.6698 10.3588 21.5619 9.58712 21.3462 8.97312C21.1471 8.35912 20.6741 8.05213 19.9274 8.05213C18.9815 8.05213 18.1933 8.52507 17.5627 9.47096C16.9321 10.4002 16.4674 11.4955 16.1687 12.7567C15.87 14.0178 15.7207 15.1048 15.7207 16.0175V24.3064L13.4307 25.2274V7.57919L15.7207 6.70798ZM31.0865 9.9439L30.265 10.2426L29.2445 5.06512L31.9328 4.14413L31.0865 9.9439ZM31.9079 22.8129C31.9079 23.0618 31.966 23.2693 32.0821 23.4352C32.2149 23.5845 32.3974 23.6592 32.6297 23.6592C32.8123 23.6592 33.0114 23.5763 33.2271 23.4103C33.4595 23.2444 33.6918 23.0037 33.9241 22.6884L34.3224 23.0618C33.9407 23.7754 33.4761 24.2815 32.9284 24.5802C32.3974 24.8789 31.9079 25.0283 31.4598 25.0283C30.8624 25.0283 30.3978 24.8374 30.0659 24.4558C29.7506 24.0741 29.593 23.4269 29.593 22.5142V13.4536L31.9079 12.5575V22.8129ZM48.1347 18.3324C48.1347 19.3447 47.8112 20.3901 47.164 21.4688C46.5168 22.5474 45.712 23.4435 44.7495 24.1571C43.8036 24.854 42.9075 25.2025 42.0612 25.2025C40.7004 25.2025 39.6301 24.7462 38.8501 23.8335C38.0868 22.9042 37.7051 21.726 37.7051 20.2988V2.84976L39.9703 1.90388V20.8465C39.9703 21.643 40.2109 22.34 40.6921 22.9374C41.1734 23.5348 41.8537 23.8335 42.7332 23.8335C43.4634 23.8335 44.094 23.626 44.625 23.2112C45.1726 22.7963 45.5792 22.2902 45.8447 21.6928C46.1268 21.0788 46.2679 20.498 46.2679 19.9504C46.2679 19.1206 46.0521 18.266 45.6207 17.3865C45.1892 16.507 44.625 15.7851 43.928 15.2209C43.2477 14.6567 42.5341 14.3746 41.7874 14.3746L44.0027 12.5326C44.7163 12.765 45.3884 13.213 46.019 13.8768C46.6661 14.524 47.1806 15.2624 47.5622 16.0921C47.9439 16.9053 48.1347 17.652 48.1347 18.3324ZM62.6701 18.3324C62.6701 19.3447 62.3465 20.3901 61.6994 21.4688C61.0522 22.5474 60.2473 23.4435 59.2849 24.1571C58.339 24.854 57.4429 25.2025 56.5966 25.2025C55.2358 25.2025 54.1655 24.7462 53.3855 23.8335C52.6222 22.9042 52.2405 21.726 52.2405 20.2988V2.84976L54.5057 1.90388V20.8465C54.5057 21.643 54.7463 22.34 55.2275 22.9374C55.7088 23.5348 56.3891 23.8335 57.2686 23.8335C57.9988 23.8335 58.6294 23.626 59.1604 23.2112C59.708 22.7963 60.1146 22.2902 60.3801 21.6928C60.6622 21.0788 60.8033 20.498 60.8033 19.9504C60.8033 19.1206 60.5875 18.266 60.1561 17.3865C59.7246 16.507 59.1604 15.7851 58.4634 15.2209C57.7831 14.6567 57.0695 14.3746 56.3228 14.3746L58.5381 12.5326C59.2517 12.765 59.9238 13.213 60.5543 13.8768C61.2015 14.524 61.716 15.2624 62.0976 16.0921C62.4793 16.9053 62.6701 17.652 62.6701 18.3324ZM69.3397 22.8129C69.3397 23.012 69.3978 23.2029 69.514 23.3854C69.6302 23.568 69.8293 23.6592 70.1114 23.6592C70.3437 23.6592 70.5843 23.5597 70.8333 23.3605C71.0988 23.1448 71.2979 22.9208 71.4307 22.6884L71.8538 23.0618C71.5717 23.6094 71.1817 24.0741 70.6839 24.4558C70.1861 24.8374 69.6882 25.0283 69.1904 25.0283C67.7965 25.0283 67.0995 24.1902 67.0995 22.5142V2.84976L69.3397 1.90388V22.8129ZM81.4577 12.2339C82.3538 12.2339 83.1006 12.4746 83.698 12.9558C84.2954 13.437 84.5941 14.1506 84.5941 15.0965C84.5941 15.8598 84.1792 16.7144 83.3495 17.6603C82.5364 18.5896 81.5739 19.4442 80.4621 20.2242C79.3668 21.0041 78.4292 21.5517 77.6493 21.867C78.0642 22.5308 78.5371 22.9954 79.0681 23.261C79.5991 23.5099 80.2214 23.6343 80.935 23.6343C81.7315 23.6343 82.5198 23.4352 83.2997 23.0369C84.0963 22.6221 84.7517 22.091 85.2662 21.4439L85.5649 21.9666C84.7517 23.012 83.8888 23.8169 82.9761 24.3811C82.0634 24.9287 80.9433 25.2025 79.6157 25.2025C78.6035 25.2025 77.6991 24.9536 76.9025 24.4558C76.106 23.9579 75.4837 23.2941 75.0357 22.4644C74.5876 21.6181 74.3636 20.7054 74.3636 19.7263C74.3636 18.4983 74.6955 17.3035 75.3593 16.1419C76.023 14.9803 76.9025 14.0427 77.9978 13.3292C79.093 12.599 80.2463 12.2339 81.4577 12.2339ZM80.1634 13.8021C79.4332 13.8021 78.7777 14.0344 78.1969 14.4991C77.6327 14.9637 77.1847 15.5611 76.8528 16.2913C76.5375 17.0214 76.3798 17.7765 76.3798 18.5564C76.3798 19.5853 76.6204 20.4648 77.1017 21.1949C77.7987 20.8797 78.5537 20.4067 79.3668 19.7761C80.18 19.1289 80.8686 18.432 81.4328 17.6852C81.9971 16.9385 82.2792 16.2581 82.2792 15.6441C82.2792 14.4161 81.5739 13.8021 80.1634 13.8021ZM91.654 6.70798V11.537C92.0191 10.143 92.6248 8.99801 93.4711 8.10191C94.334 7.18922 95.4707 6.73287 96.8813 6.73287C97.8769 6.73287 98.632 7.07305 99.1464 7.75343C99.6608 8.4338 99.918 9.28012 99.918 10.2924V22.2404C99.918 22.705 100.009 23.0784 100.192 23.3605C100.391 23.6426 100.665 23.7837 101.013 23.7837C101.295 23.7837 101.577 23.7007 101.86 23.5348C102.142 23.3522 102.357 23.1365 102.507 22.8876L102.855 23.2112C102.64 23.709 102.291 24.1405 101.81 24.5055C101.329 24.854 100.773 25.0283 100.142 25.0283C99.3787 25.0283 98.7647 24.7711 98.3001 24.2566C97.8354 23.7256 97.6031 22.9623 97.6031 21.9666V11.288C97.6031 10.3588 97.4952 9.58712 97.2795 8.97312C97.0804 8.35912 96.6074 8.05213 95.8607 8.05213C94.9148 8.05213 94.1266 8.52507 93.496 9.47096C92.8654 10.4002 92.4007 11.4955 92.102 12.7567C91.8033 14.0178 91.654 15.1048 91.654 16.0175V24.3064L89.364 25.2274V7.57919L91.654 6.70798ZM107.02 9.9439L106.198 10.2426L105.178 5.06512L107.866 4.14413L107.02 9.9439ZM107.841 22.8129C107.841 23.0618 107.899 23.2693 108.015 23.4352C108.148 23.5845 108.331 23.6592 108.563 23.6592C108.746 23.6592 108.945 23.5763 109.16 23.4103C109.393 23.2444 109.625 23.0037 109.857 22.6884L110.256 23.0618C109.874 23.7754 109.409 24.2815 108.862 24.5802C108.331 24.8789 107.841 25.0283 107.393 25.0283C106.796 25.0283 106.331 24.8374 105.999 24.4558C105.684 24.0741 105.526 23.4269 105.526 22.5142V13.4536L107.841 12.5575V22.8129ZM122.45 12.2339C123.114 12.2339 123.545 12.4829 123.744 12.9807C123.944 13.4619 124.043 14.134 124.043 14.9969V15.7686V22.8129C124.043 22.9954 124.101 23.1863 124.217 23.3854C124.334 23.568 124.499 23.6592 124.715 23.6592C124.997 23.6592 125.238 23.568 125.437 23.3854C125.636 23.2029 125.835 22.9706 126.034 22.6884L126.408 23.0618C126.159 23.5928 125.786 24.0575 125.288 24.4558C124.79 24.8374 124.317 25.0283 123.869 25.0283C123.205 25.0283 122.691 24.8208 122.326 24.406C121.961 23.9911 121.778 23.3605 121.778 22.5142V15.9179C121.778 15.669 121.753 15.4616 121.703 15.2956C121.654 15.1297 121.529 15.0467 121.33 15.0467C120.65 15.0467 119.953 15.7022 119.239 17.0131C118.525 18.3241 117.911 19.7927 117.397 21.419C116.899 23.0286 116.65 24.0907 116.65 24.6051L114.485 25.2523V14.5986C114.485 14.3663 114.418 14.1589 114.286 13.9764C114.169 13.7772 113.995 13.6777 113.763 13.6777C113.365 13.6777 112.933 14.0344 112.469 14.748L112.095 14.3497C112.311 13.7523 112.668 13.2545 113.165 12.8562C113.663 12.4414 114.161 12.2339 114.659 12.2339C115.356 12.2339 115.87 12.3999 116.202 12.7318C116.551 13.0637 116.725 13.52 116.725 14.1008V20.6473H116.825C117.273 19.1704 117.704 17.8843 118.119 16.7891C118.534 15.6939 119.115 14.665 119.861 13.7025C120.608 12.7235 121.471 12.2339 122.45 12.2339ZM130.873 10.2426L129.903 5.06512L132.666 4.14413L131.745 9.9439L130.873 10.2426ZM130.276 13.4785L132.491 12.5575V23.5597C132.491 25.0698 132.143 26.4886 131.446 27.8161C130.766 29.1437 129.869 30.2057 128.758 31.0023C127.646 31.8154 126.492 32.222 125.298 32.222C124.551 32.222 123.846 31.9979 123.182 31.5499L124.974 29.3345C125.621 29.9153 126.434 30.2057 127.413 30.2057C128.26 30.2057 128.948 29.8573 129.479 29.1603C130.01 28.4799 130.276 27.1607 130.276 25.2025V13.4785ZM143.453 12.458C144.267 12.458 145.03 12.6322 145.743 12.9807C146.474 13.3292 147.005 13.8602 147.337 14.5738L145.544 15.5445C145.279 15.1629 144.914 14.8227 144.449 14.524C143.984 14.2087 143.487 14.051 142.956 14.051C142.109 14.051 141.371 14.2751 140.74 14.7231C140.11 15.1546 139.628 15.7437 139.297 16.4904C138.965 17.2372 138.799 18.0669 138.799 18.9796C138.799 20.2905 139.023 21.3609 139.471 22.1906C139.919 23.0037 140.624 23.4103 141.587 23.4103C142.947 23.4103 143.885 22.8627 144.399 21.7675C144.914 20.6722 145.171 19.4774 145.171 18.183V17.0629L147.361 16.1419V22.6884C147.361 22.9042 147.419 23.1116 147.536 23.3107C147.652 23.5099 147.826 23.6094 148.058 23.6094C148.54 23.6094 148.979 23.2776 149.378 22.6138L149.751 23.012C149.552 23.5763 149.203 24.0575 148.706 24.4558C148.208 24.8374 147.71 25.0283 147.212 25.0283C146.499 25.0283 145.967 24.7628 145.619 24.2317C145.287 23.7007 145.121 22.9954 145.121 22.1159H145.071C144.657 22.9954 144.092 23.7339 143.379 24.3313C142.682 24.9121 141.943 25.2025 141.163 25.2025C139.753 25.2025 138.683 24.7213 137.952 23.7588C137.239 22.7797 136.882 21.4771 136.882 19.8508C136.882 18.5564 137.172 17.345 137.753 16.2166C138.334 15.0716 139.122 14.1589 140.118 13.4785C141.13 12.7981 142.242 12.458 143.453 12.458Z" fill="#32794F"/>
</svg>
